<svg width="20" height="20" viewBox="0 0 20 20" fill="none" xmlns="http://www.w3.org/2000/svg">
<path d="M0.416641 10.8334C0.646641 10.8334 0.83332 10.6468 0.83332 10.4168C0.83332 6.97009 3.63664 4.16677 7.08332 4.16677C10.4641 4.16677 11.6483 6.07845 12.6 7.61509C13.16 8.51927 13.6433 9.30009 14.455 9.56341C14.6792 9.63509 14.9092 9.51341 14.98 9.29591C15.0508 9.07673 14.9308 8.84173 14.7125 8.77091C14.1917 8.60173 13.7825 7.94173 13.3083 7.17673C12.3041 5.55505 10.9291 3.33423 7.08332 3.33423C3.1775 3.33423 0 6.51173 0 10.4175C0 10.6468 0.186641 10.8334 0.416641 10.8334Z" fill="url(#paint0_linear_1_2394)"/>
<path d="M0.833324 13.7501C0.895824 13.7501 0.959144 13.7359 1.02 13.7059C1.22582 13.6026 1.30918 13.3526 1.20668 13.1467C1.05586 12.8467 0.834183 12.3001 0.834183 12.0834C0.834183 11.8534 0.647504 11.6667 0.417504 11.6667C0.187504 11.6667 0.000823975 11.8534 0.000823975 12.0834C0.000823975 12.5734 0.385004 13.3659 0.461644 13.5201C0.534144 13.6651 0.681644 13.7501 0.833324 13.7501Z" fill="url(#paint1_linear_1_2394)"/>
<path d="M3.08832 1.63C3.2775 1.54418 3.44 1.4625 3.59164 1.38332C4.21414 1.06414 4.66414 0.83332 6.66664 0.83332C8.91914 0.83332 9.74832 1.14082 10.6266 1.4675C10.7858 1.52668 10.9466 1.58668 11.115 1.64418C11.1591 1.66 11.2041 1.66668 11.25 1.66668C11.4233 1.66668 11.5841 1.55836 11.6441 1.385C11.7191 1.1675 11.6033 0.93082 11.385 0.85582C11.2233 0.8 11.07 0.7425 10.9158 0.68582C10.0066 0.34918 9.0675 0 6.665 0C4.46082 0 3.90918 0.28332 3.21 0.6425C3.06918 0.715 2.92 0.79168 2.74418 0.87C2.535 0.96418 2.44168 1.21082 2.535 1.42082C2.63 1.63082 2.8775 1.72418 3.08832 1.63Z" fill="url(#paint2_linear_1_2394)"/>
<path d="M13.3941 5.6358C13.4008 5.64412 13.9975 6.61498 14.1858 7.20998C14.2425 7.38666 14.4075 7.49998 14.5833 7.49998C14.6258 7.49998 14.6683 7.4933 14.71 7.4808C14.9292 7.40998 15.05 7.1758 14.98 6.95662C14.7583 6.26494 14.1308 5.24162 14.1042 5.19912C13.9825 5.00244 13.725 4.9408 13.5309 5.06244C13.335 5.1833 13.2733 5.43916 13.3941 5.6358Z" fill="url(#paint3_linear_1_2394)"/>
<path d="M2.67832 11.6841C2.34082 10.5075 2.48082 9.26996 3.07332 8.19832C3.66582 7.12664 4.64082 6.34914 5.8175 6.01082C8.215 5.33082 10.7458 6.70832 11.4683 9.08414C11.4783 9.11664 11.4916 9.14746 11.51 9.17664C11.5617 9.26332 11.6067 9.33832 13.0883 10.5633C13.265 10.71 13.5266 10.685 13.675 10.5075C13.8217 10.33 13.7967 10.0683 13.6192 9.92082C12.605 9.0825 12.3075 8.8175 12.2417 8.76082C11.3559 6.00082 8.39 4.40914 5.59 5.20914C4.1975 5.60914 3.04582 6.52746 2.345 7.79414C1.645 9.06082 1.47918 10.5225 1.87832 11.9133C2.56164 14.2891 1.09582 14.9483 0.629142 15.0933C0.409142 15.1625 0.287462 15.3958 0.355821 15.6158C0.411642 15.7941 0.576642 15.9083 0.754142 15.9083C0.794962 15.9083 0.837462 15.9025 0.878321 15.89C2.1525 15.4916 3.3875 14.1508 2.67832 11.6841Z" fill="url(#paint4_linear_1_2394)"/>
<path d="M0.616642 4.94007C0.813322 5.05757 1.06914 4.99675 1.19082 4.80007C1.55332 4.20339 3.33582 2.50007 6.66664 2.50007C9.86996 2.50007 12.1491 4.12257 12.56 4.80007C12.64 4.92839 12.7766 5.00007 12.9166 5.00007C12.9908 5.00007 13.0658 4.98089 13.1333 4.94007C13.3291 4.82007 13.3925 4.56425 13.2733 4.36675C12.7016 3.42507 10.1775 1.66675 6.66664 1.66675C2.93414 1.66675 0.933322 3.61593 0.476642 4.36675C0.358322 4.56425 0.420822 4.82007 0.616642 4.94007Z" fill="url(#paint5_linear_1_2394)"/>
<path d="M10.9616 17.2925C11.1066 17.1158 11.0783 16.8542 10.9 16.7092C8.76746 14.9833 6.50496 12.9267 5.88246 10.7617C5.78996 10.4408 5.82828 10.1033 5.98996 9.81085C6.15164 9.51835 6.41746 9.30753 6.73746 9.21503C7.05914 9.12421 7.39746 9.16171 7.68914 9.32253C7.98164 9.48335 8.19246 9.75003 8.28496 10.0708C8.55996 11.0258 9.53328 12.2283 11.2591 13.7467C11.4316 13.9 11.6941 13.8817 11.8466 13.7092C11.9991 13.5367 11.9825 13.2733 11.8091 13.1217C9.84082 11.3892 9.24082 10.3808 9.08496 9.83999C8.93164 9.30417 8.57914 8.86167 8.09246 8.59249C7.60578 8.32417 7.04496 8.26167 6.50828 8.41331C5.97246 8.56749 5.52996 8.91913 5.26078 9.40663C4.9916 9.89331 4.92828 10.4558 5.0816 10.9899C5.76742 13.3766 8.14242 15.5466 10.3758 17.3549C10.4533 17.4174 10.5458 17.4474 10.6375 17.4474C10.7591 17.4475 10.8791 17.395 10.9616 17.2925Z" fill="url(#paint6_linear_1_2394)"/>
<path d="M7.48414 10.3009C7.41996 10.0792 7.19246 9.95086 6.96832 10.0159C6.7475 10.0792 6.62 10.3109 6.68332 10.5317C7.34 12.815 9.83414 14.7084 11.3525 15.8609L11.8292 15.1759C10.4208 14.1075 8.06414 12.3192 7.48414 10.3009Z" fill="url(#paint7_linear_1_2394)"/>
<path d="M18.2358 17.3784L16.985 17.0667L16.9325 16.8567C17.2575 16.4984 17.4875 16.0409 17.5833 15.5659C17.8058 15.4509 17.9675 15.2325 18 14.9692L18.09 14.2459C18.1175 14.0259 18.05 13.8042 17.9042 13.6375C17.8592 13.5859 17.8084 13.5417 17.7517 13.5042L17.7734 13.0617L17.8492 12.985C18.0642 12.7575 18.3542 12.2692 17.895 11.5667C17.6767 11.2334 17.2275 10.8342 16.325 10.8342C16.06 10.8342 15.4608 10.8342 14.8792 11.1992C13.1642 11.2584 12.9625 12.1834 12.9625 12.8809C12.9625 13.0184 12.9867 13.2767 13.0108 13.4917C12.9491 13.5309 12.8916 13.5784 12.8433 13.635C12.695 13.8025 12.6266 14.0259 12.655 14.245L12.745 14.97C12.7792 15.2409 12.9517 15.4667 13.2058 15.5775C13.2991 16.0325 13.5175 16.4717 13.8216 16.8217L13.7608 17.0667L12.51 17.3784C11.4983 17.6317 10.79 18.5384 10.79 19.5834C10.79 19.8134 10.9767 20.0001 11.2067 20.0001H19.54C19.77 20.0001 19.9567 19.8126 19.9567 19.5826C19.9566 18.5384 19.2475 17.6317 18.2358 17.3784Z" fill="url(#paint8_linear_1_2394)"/>
<path d="M5.81414 14.4566C5.74332 14.2374 5.50914 14.1183 5.28996 14.1866C5.07078 14.2566 4.94996 14.4916 5.01996 14.7108C5.37664 15.8258 4.67578 18.0125 3.62164 18.3541C3.40246 18.4249 3.28332 18.6599 3.35414 18.8791C3.41082 19.0549 3.57496 19.1674 3.75082 19.1674C3.79332 19.1674 3.8375 19.1607 3.87914 19.1474C5.48414 18.6257 6.25664 15.8407 5.81414 14.4566Z" fill="url(#paint9_linear_1_2394)"/>
<path d="M4.2875 11.2483C3.92582 9.60584 4.78168 8.04334 6.2775 7.61416C7.8225 7.17334 9.44332 8.06584 9.88668 9.61084C10.025 10.09 10.39 10.6525 11.7184 11.8392C11.89 11.9917 12.1534 11.9775 12.3067 11.8058C12.46 11.6342 12.445 11.3708 12.2734 11.2175C11.0125 10.0917 10.7634 9.64419 10.6875 9.38084C10.1159 7.39502 8.03336 6.24416 6.04836 6.81334C4.12336 7.36584 3.01668 9.34916 3.47418 11.4275C4.31586 15.2592 3.6875 16.1458 1.96 16.6858C1.74 16.755 1.61832 16.9883 1.68668 17.2083C1.7425 17.3867 1.9075 17.5008 2.085 17.5008C2.12582 17.5008 2.16832 17.495 2.20918 17.4825C4.62 16.7267 5.14582 15.155 4.2875 11.2483Z" fill="url(#paint10_linear_1_2394)"/>
<path d="M9.57914 18.0784C9.16496 17.5167 8.53914 16.6667 7.49996 16.6667C6.08664 16.6667 5.86414 19.0751 5.83414 19.5576C5.81914 19.7867 5.99414 19.9851 6.22414 19.9992C6.23246 20.0001 6.24164 20.0001 6.24996 20.0001C6.46914 20.0001 6.65164 19.8301 6.66578 19.6092C6.7191 18.7476 7.04746 17.5001 7.49996 17.5001C8.11746 17.5001 8.55664 18.0951 8.90746 18.5726C9.04746 18.7626 9.17328 18.9301 9.28828 19.0442C9.45078 19.2067 9.71496 19.2067 9.87746 19.0442C10.04 18.8817 10.04 18.6176 9.87746 18.4551C9.7875 18.3643 9.69 18.2293 9.57914 18.0784Z" fill="url(#paint11_linear_1_2394)"/>
<defs>
<linearGradient id="paint0_linear_1_2394" x1="-2.27123" y1="3.89667" x2="5.49398" y2="16.3496" gradientUnits="userSpaceOnUse">
<stop offset="0.224701" stop-color="#0075FF"/>
<stop offset="0.67999" stop-color="#004597"/>
</linearGradient>
<linearGradient id="paint1_linear_1_2394" x1="-0.188394" y1="11.823" x2="1.68825" y2="12.7255" gradientUnits="userSpaceOnUse">
<stop offset="0.224701" stop-color="#0075FF"/>
<stop offset="0.67999" stop-color="#004597"/>
</linearGradient>
<linearGradient id="paint2_linear_1_2394" x1="1.11064" y1="0.125001" x2="1.93958" y2="3.78082" gradientUnits="userSpaceOnUse">
<stop offset="0.224701" stop-color="#0075FF"/>
<stop offset="0.67999" stop-color="#004597"/>
</linearGradient>
<linearGradient id="paint3_linear_1_2394" x1="13.0798" y1="5.1875" x2="15.4774" y2="6.46975" gradientUnits="userSpaceOnUse">
<stop offset="0.224701" stop-color="#0075FF"/>
<stop offset="0.67999" stop-color="#004597"/>
</linearGradient>
<linearGradient id="paint4_linear_1_2394" x1="-1.69722" y1="5.82027" x2="10.8778" y2="18.2388" gradientUnits="userSpaceOnUse">
<stop offset="0.224701" stop-color="#0075FF"/>
<stop offset="0.67999" stop-color="#004597"/>
</linearGradient>
<linearGradient id="paint5_linear_1_2394" x1="-1.53896" y1="1.91675" x2="0.703168" y2="8.88251" gradientUnits="userSpaceOnUse">
<stop offset="0.224701" stop-color="#0075FF"/>
<stop offset="0.67999" stop-color="#004597"/>
</linearGradient>
<linearGradient id="paint6_linear_1_2394" x1="3.94724" y1="9.01602" x2="13.3027" y2="14.7361" gradientUnits="userSpaceOnUse">
<stop offset="0.224701" stop-color="#0075FF"/>
<stop offset="0.67999" stop-color="#004597"/>
</linearGradient>
<linearGradient id="paint7_linear_1_2394" x1="5.88548" y1="10.4386" x2="12.2551" y2="14.9357" gradientUnits="userSpaceOnUse">
<stop offset="0.224701" stop-color="#0075FF"/>
<stop offset="0.67999" stop-color="#004597"/>
</linearGradient>
<linearGradient id="paint8_linear_1_2394" x1="9.40206" y1="11.5217" x2="19.7187" y2="19.7937" gradientUnits="userSpaceOnUse">
<stop offset="0.224701" stop-color="#0075FF"/>
<stop offset="0.67999" stop-color="#004597"/>
</linearGradient>
<linearGradient id="paint9_linear_1_2394" x1="2.93948" y1="14.5424" x2="7.03918" y2="16.254" gradientUnits="userSpaceOnUse">
<stop offset="0.224701" stop-color="#0075FF"/>
<stop offset="0.67999" stop-color="#004597"/>
</linearGradient>
<linearGradient id="paint10_linear_1_2394" x1="0.0407602" y1="7.48026" x2="12.2117" y2="17.1587" gradientUnits="userSpaceOnUse">
<stop offset="0.224701" stop-color="#0075FF"/>
<stop offset="0.67999" stop-color="#004597"/>
</linearGradient>
<linearGradient id="paint11_linear_1_2394" x1="5.20245" y1="16.9167" x2="9.04617" y2="20.7683" gradientUnits="userSpaceOnUse">
<stop offset="0.224701" stop-color="#0075FF"/>
<stop offset="0.67999" stop-color="#004597"/>
</linearGradient>
</defs>
</svg>
