<svg width="15" height="15" viewBox="0 0 15 15" fill="none" xmlns="http://www.w3.org/2000/svg">
<g clip-path="url(#clip0_1_2435)">
<path d="M11.9198 2.72444C12.1972 2.72444 12.4221 2.49954 12.4221 2.22211C12.4221 1.94469 12.1972 1.71979 11.9198 1.71979C11.6424 1.71979 11.4175 1.94469 11.4175 2.22211C11.4175 2.49954 11.6424 2.72444 11.9198 2.72444Z" fill="url(#paint0_linear_1_2435)"/>
<path d="M11.9198 2.73634C11.6363 2.73634 11.4056 2.50568 11.4056 2.22217C11.4056 1.93867 11.6363 1.70801 11.9198 1.70801C12.2033 1.70801 12.434 1.93867 12.434 2.22217C12.434 2.50568 12.2033 2.73634 11.9198 2.73634ZM11.9198 1.73166C11.6493 1.73166 11.4293 1.95169 11.4293 2.22215C11.4293 2.49261 11.6493 2.71264 11.9198 2.71264C12.1902 2.71264 12.4103 2.49261 12.4103 2.22215C12.4103 1.95169 12.1902 1.73166 11.9198 1.73166Z" fill="url(#paint1_linear_1_2435)"/>
<path d="M10.4225 2.72444C10.6999 2.72444 10.9248 2.49954 10.9248 2.22211C10.9248 1.94469 10.6999 1.71979 10.4225 1.71979C10.1451 1.71979 9.92017 1.94469 9.92017 2.22211C9.92017 2.49954 10.1451 2.72444 10.4225 2.72444Z" fill="url(#paint2_linear_1_2435)"/>
<path d="M10.4225 2.73634C10.139 2.73634 9.90831 2.50568 9.90831 2.22217C9.90831 1.93867 10.139 1.70801 10.4225 1.70801C10.706 1.70801 10.9367 1.93867 10.9367 2.22217C10.9367 2.50568 10.706 2.73634 10.4225 2.73634ZM10.4225 1.73166C10.152 1.73166 9.93199 1.95169 9.93199 2.22215C9.93199 2.49261 10.152 2.71264 10.4225 2.71264C10.693 2.71264 10.913 2.49261 10.913 2.22215C10.913 1.95169 10.693 1.73166 10.4225 1.73166Z" fill="url(#paint3_linear_1_2435)"/>
<path d="M8.92518 2.72444C9.20261 2.72444 9.42751 2.49954 9.42751 2.22211C9.42751 1.94469 9.20261 1.71979 8.92518 1.71979C8.64775 1.71979 8.42285 1.94469 8.42285 2.22211C8.42285 2.49954 8.64775 2.72444 8.92518 2.72444Z" fill="url(#paint4_linear_1_2435)"/>
<path d="M8.92518 2.73634C8.64165 2.73634 8.41102 2.50568 8.41102 2.22217C8.41102 1.93867 8.64165 1.70801 8.92518 1.70801C9.20871 1.70801 9.43937 1.93867 9.43937 2.22217C9.43937 2.50568 9.20871 2.73634 8.92518 2.73634ZM8.92518 1.73166C8.65472 1.73166 8.43469 1.95169 8.43469 2.22215C8.43469 2.49261 8.65472 2.71264 8.92518 2.71264C9.19564 2.71264 9.41569 2.49261 9.41569 2.22215C9.41569 1.95169 9.19564 1.73166 8.92518 1.73166Z" fill="url(#paint5_linear_1_2435)"/>
<path d="M1.3884 13.8035H12.6286C13.3877 13.8035 14.0052 13.186 14.0052 12.4269V1.59013C14.0052 0.831075 13.3877 0.213562 12.6286 0.213562H1.3884C0.629352 0.213562 0.0118387 0.831098 0.0118387 1.59013V12.4269C0.0118387 13.186 0.629375 13.8035 1.3884 13.8035ZM12.9909 12.4269C12.9909 12.627 12.8287 12.7892 12.6286 12.7892H1.3884C1.18831 12.7892 1.02615 12.627 1.02615 12.4269V4.15489H12.9909V12.4269ZM1.02615 1.59013C1.02615 1.39006 1.18834 1.22787 1.3884 1.22787H12.6286C12.8287 1.22787 12.9909 1.39006 12.9909 1.59013V3.14057H1.02615V1.59013Z" fill="url(#paint6_linear_1_2435)"/>
<path d="M12.6286 13.8154H1.3884C0.62284 13.8154 0 13.1926 0 12.427V1.59019C0 0.824622 0.62284 0.201782 1.3884 0.201782H12.6286C13.3942 0.201782 14.017 0.824622 14.017 1.59019V12.427C14.017 13.1926 13.3942 13.8154 12.6286 13.8154ZM1.3884 0.225459C0.635886 0.225459 0.0236767 0.837668 0.0236767 1.59019V12.427C0.0236767 13.1795 0.635886 13.7917 1.3884 13.7917H12.6286C13.3811 13.7917 13.9934 13.1795 13.9934 12.427V1.59019C13.9934 0.837668 13.3811 0.225459 12.6286 0.225459H1.3884ZM12.6286 12.801H1.3884C1.18213 12.801 1.01431 12.6333 1.01431 12.427V4.14311H13.0027V12.427C13.0027 12.6333 12.8349 12.801 12.6286 12.801ZM1.03799 4.16678V12.427C1.03799 12.6202 1.19518 12.7774 1.3884 12.7774H12.6286C12.8218 12.7774 12.979 12.6202 12.979 12.427V4.16678H1.03799ZM13.0027 3.15247H1.01431V1.59019C1.01431 1.38391 1.18213 1.21609 1.3884 1.21609H12.6286C12.8349 1.21609 13.0027 1.38391 13.0027 1.59019V3.15247ZM1.03799 3.12879H12.979V1.59019C12.979 1.39696 12.8218 1.23977 12.6286 1.23977H1.3884C1.19518 1.23977 1.03799 1.39698 1.03799 1.59019V3.12879Z" fill="url(#paint7_linear_1_2435)"/>
<path d="M5.61785 10.5466C5.71296 10.6417 5.84195 10.6952 5.97646 10.6952C6.11097 10.6952 6.23996 10.6417 6.33507 10.5466L10.1303 6.75144C10.3283 6.55338 10.3283 6.23228 10.1303 6.03422C9.9322 5.83617 9.61107 5.83617 9.41302 6.03422L5.97646 9.47076L4.60179 8.09611C4.40373 7.89806 4.08263 7.89806 3.88457 8.09611C3.68652 8.29417 3.68652 8.61525 3.88457 8.8133L5.61785 10.5466Z" fill="url(#paint8_linear_1_2435)"/>
<path d="M5.97646 10.707C5.83785 10.707 5.70754 10.653 5.60947 10.555L3.87619 8.82165C3.67385 8.61931 3.67385 8.29006 3.87619 8.08772C3.97421 7.98967 4.10455 7.93571 4.24318 7.93571C4.38181 7.93571 4.51212 7.98967 4.61017 8.08772L5.97648 9.45398L9.40468 6.02578C9.50273 5.92776 9.63304 5.87378 9.77167 5.87378C9.9103 5.87378 10.0406 5.92776 10.1387 6.02578C10.341 6.22813 10.341 6.5574 10.1387 6.75976L6.34345 10.555C6.24538 10.653 6.11506 10.707 5.97646 10.707ZM4.24318 7.95939C4.11087 7.95939 3.98648 8.01091 3.89293 8.10446C3.69982 8.29757 3.69982 8.6118 3.89293 8.80491L5.62621 10.5382C5.7198 10.6318 5.84418 10.6833 5.97646 10.6833C6.10872 10.6833 6.23311 10.6318 6.32671 10.5382L10.1219 6.74302C10.315 6.54989 10.315 6.23565 10.1219 6.04255C10.0284 5.949 9.90395 5.89748 9.77165 5.89748C9.63934 5.89748 9.51495 5.949 9.4214 6.04255L5.97646 9.48746L4.59341 8.10446C4.49988 8.01091 4.37548 7.95939 4.24318 7.95939Z" fill="url(#paint9_linear_1_2435)"/>
</g>
<defs>
<linearGradient id="paint0_linear_1_2435" x1="12.5642" y1="2.70116" x2="11.3197" y2="1.77687" gradientUnits="userSpaceOnUse">
<stop offset="0.306842" stop-color="#003396"/>
<stop offset="0.771621" stop-color="#0085FF"/>
</linearGradient>
<linearGradient id="paint1_linear_1_2435" x1="12.5795" y1="2.71251" x2="11.3056" y2="1.76641" gradientUnits="userSpaceOnUse">
<stop offset="0.306842" stop-color="#003396"/>
<stop offset="0.771621" stop-color="#0085FF"/>
</linearGradient>
<linearGradient id="paint2_linear_1_2435" x1="11.0669" y1="2.70116" x2="9.82245" y2="1.77687" gradientUnits="userSpaceOnUse">
<stop offset="0.306842" stop-color="#003396"/>
<stop offset="0.771621" stop-color="#0085FF"/>
</linearGradient>
<linearGradient id="paint3_linear_1_2435" x1="11.0821" y1="2.71251" x2="9.8083" y2="1.76641" gradientUnits="userSpaceOnUse">
<stop offset="0.306842" stop-color="#003396"/>
<stop offset="0.771621" stop-color="#0085FF"/>
</linearGradient>
<linearGradient id="paint4_linear_1_2435" x1="9.56963" y1="2.70116" x2="8.32513" y2="1.77687" gradientUnits="userSpaceOnUse">
<stop offset="0.306842" stop-color="#003396"/>
<stop offset="0.771621" stop-color="#0085FF"/>
</linearGradient>
<linearGradient id="paint5_linear_1_2435" x1="9.58485" y1="2.71251" x2="8.31101" y2="1.76641" gradientUnits="userSpaceOnUse">
<stop offset="0.306842" stop-color="#003396"/>
<stop offset="0.771621" stop-color="#0085FF"/>
</linearGradient>
<linearGradient id="paint6_linear_1_2435" x1="15.9848" y1="13.4887" x2="-0.985845" y2="0.510441" gradientUnits="userSpaceOnUse">
<stop offset="0.306842" stop-color="#003396"/>
<stop offset="0.771621" stop-color="#0085FF"/>
</linearGradient>
<linearGradient id="paint7_linear_1_2435" x1="16" y1="13.5" x2="-1" y2="0.500001" gradientUnits="userSpaceOnUse">
<stop offset="0.306842" stop-color="#003396"/>
<stop offset="0.771621" stop-color="#0085FF"/>
</linearGradient>
<linearGradient id="paint8_linear_1_2435" x1="11.2044" y1="10.5837" x2="4.98148" y2="4.29637" gradientUnits="userSpaceOnUse">
<stop offset="0.306842" stop-color="#003396"/>
<stop offset="0.771621" stop-color="#0085FF"/>
</linearGradient>
<linearGradient id="paint9_linear_1_2435" x1="11.2193" y1="10.595" x2="4.96564" y2="4.28522" gradientUnits="userSpaceOnUse">
<stop offset="0.306842" stop-color="#003396"/>
<stop offset="0.771621" stop-color="#0085FF"/>
</linearGradient>
<clipPath id="clip0_1_2435">
<rect width="14.017" height="14.017" fill="white"/>
</clipPath>
</defs>
</svg>
