<svg width="18" height="22" viewBox="0 0 18 22" fill="none" xmlns="http://www.w3.org/2000/svg">
<path d="M16.6916 0H1.30838C0.945939 0 0.652161 0.293863 0.652161 0.656219V20.1078C0.652161 20.7022 1.007 21.2332 1.55614 21.4606C2.10528 21.6879 2.73159 21.5634 3.15187 21.1431C3.33646 20.9585 3.58198 20.8568 3.84306 20.8568C4.10418 20.8568 4.34966 20.9585 4.53426 21.1431C5.10553 21.7144 5.85585 22 6.60625 22C7.35666 22 8.10702 21.7144 8.67825 21.1432C8.93452 20.8869 8.93452 20.4714 8.67825 20.215C8.42198 19.9589 8.00648 19.9589 7.75012 20.215C7.11943 20.8457 6.09308 20.8457 5.46234 20.215C4.56945 19.3222 3.11663 19.3221 2.22374 20.2151C2.17605 20.2626 2.12032 20.2737 2.05831 20.248C1.99609 20.2222 1.9646 20.1751 1.9646 20.1077V6.48789H16.0353V20.1078C16.0353 20.175 16.0038 20.2223 15.9416 20.248C15.8793 20.2738 15.8238 20.2628 15.7762 20.2151C14.8834 19.3223 13.4305 19.3223 12.5376 20.2151L12.0178 20.7348C11.7616 20.9911 11.7616 21.4066 12.0178 21.663C12.2741 21.9191 12.6896 21.9191 12.946 21.663L13.4657 21.1432C13.6503 20.9586 13.8958 20.8569 14.1569 20.8569C14.418 20.8569 14.6635 20.9586 14.8481 21.1432C15.2684 21.5635 15.8949 21.6881 16.4439 21.4606C16.9929 21.2332 17.3478 20.7021 17.3478 20.1078V0.656219C17.3478 0.293863 17.0541 0 16.6916 0ZM1.96464 5.17541V1.31248H16.0354V5.17541H1.96464Z" fill="url(#paint0_linear_1_2503)"/>
<path d="M13.2776 10.353H4.7224C3.86856 10.353 3.17648 10.0633 3.17648 9.70596C3.17648 9.34866 3.86856 9.0589 4.7224 9.0589H13.2776C14.1315 9.0589 14.8235 9.34866 14.8235 9.70596C14.8235 10.0633 14.1315 10.353 13.2776 10.353Z" fill="url(#paint1_linear_1_2503)"/>
<path d="M13.2776 12.9411H4.7224C3.86856 12.9411 3.17648 12.6513 3.17648 12.294C3.17648 11.9367 3.86856 11.647 4.7224 11.647H13.2776C14.1315 11.647 14.8235 11.9367 14.8235 12.294C14.8235 12.6513 14.1315 12.9411 13.2776 12.9411Z" fill="url(#paint2_linear_1_2503)"/>
<path d="M13.2776 15.5294H4.7224C3.86856 15.5294 3.17648 15.2396 3.17648 14.8823C3.17648 14.5251 3.86856 14.2353 4.7224 14.2353H13.2776C14.1315 14.2353 14.8235 14.5251 14.8235 14.8823C14.8235 15.2396 14.1315 15.5294 13.2776 15.5294Z" fill="url(#paint3_linear_1_2503)"/>
<defs>
<linearGradient id="paint0_linear_1_2503" x1="8.99996" y1="0" x2="8.99996" y2="22" gradientUnits="userSpaceOnUse">
<stop stop-color="#0077FF"/>
<stop offset="1" stop-color="#004592" stop-opacity="0.76"/>
</linearGradient>
<linearGradient id="paint1_linear_1_2503" x1="9" y1="9.0589" x2="9" y2="10.353" gradientUnits="userSpaceOnUse">
<stop stop-color="#0077FF"/>
<stop offset="1" stop-color="#004592" stop-opacity="0.76"/>
</linearGradient>
<linearGradient id="paint2_linear_1_2503" x1="9" y1="11.647" x2="9" y2="12.9411" gradientUnits="userSpaceOnUse">
<stop stop-color="#0077FF"/>
<stop offset="1" stop-color="#004592" stop-opacity="0.76"/>
</linearGradient>
<linearGradient id="paint3_linear_1_2503" x1="9" y1="14.2353" x2="9" y2="15.5294" gradientUnits="userSpaceOnUse">
<stop stop-color="#0077FF"/>
<stop offset="1" stop-color="#004592" stop-opacity="0.76"/>
</linearGradient>
</defs>
</svg>
