<svg width="52" height="52" viewBox="0 0 52 52" fill="none" xmlns="http://www.w3.org/2000/svg">
<g clip-path="url(#clip0_1_81)">
<path d="M12.5311 0.17041H0.42623C0.170492 0.17041 0 0.340902 0 0.59664V12.7868C0 12.9573 0.170492 13.213 0.42623 13.213H12.6164C12.8721 13.213 13.0426 13.0425 13.0426 12.7868V0.59664C12.9574 0.340902 12.7869 0.17041 12.5311 0.17041ZM3.23934 9.88844V3.495H9.63279V9.88844H3.23934Z" fill="white"/>
<path d="M7.58686 5.20001H5.45571C5.19997 5.20001 5.02948 5.3705 5.02948 5.62624V7.75739C5.02948 8.01313 5.19997 8.18362 5.45571 8.18362H7.58686C7.84259 8.18362 8.01309 8.01313 8.01309 7.75739V5.62624C7.92784 5.3705 7.75735 5.20001 7.58686 5.20001Z" fill="white"/>
<path d="M51.4033 0.17041H39.2131C38.9574 0.17041 38.7869 0.340902 38.7869 0.59664V12.7868C38.7869 13.0425 38.9574 13.213 39.2131 13.213H51.4033C51.659 13.213 51.8295 13.0425 51.8295 12.7868V0.59664C51.7442 0.340902 51.5737 0.17041 51.4033 0.17041ZM42.0262 9.88844V3.495H48.4197V9.88844H42.0262Z" fill="white"/>
<path d="M46.3738 5.20001H44.2426C43.9869 5.20001 43.8164 5.3705 43.8164 5.62624V7.75739C43.8164 8.01313 43.9869 8.18362 44.2426 8.18362H46.3738C46.6295 8.18362 46.8 8.01313 46.8 7.75739V5.62624C46.7148 5.3705 46.5443 5.20001 46.3738 5.20001Z" fill="white"/>
<path d="M12.5311 38.7869H0.42623C0.170492 38.7869 0 38.9574 0 39.2131V51.4033C0 51.659 0.170492 51.8295 0.42623 51.8295H12.6164C12.8721 51.8295 13.0426 51.659 13.0426 51.4033V39.2131C12.9574 39.0426 12.7869 38.7869 12.5311 38.7869ZM3.23934 48.5049V42.1115H9.63279V48.5049H3.23934Z" fill="white"/>
<path d="M7.58686 43.8163H5.45571C5.19997 43.8163 5.02948 43.9868 5.02948 44.2425V46.3737C5.02948 46.6294 5.19997 46.7999 5.45571 46.7999H7.58686C7.84259 46.7999 8.01309 46.6294 8.01309 46.3737V44.2425C7.92784 43.9868 7.75735 43.8163 7.58686 43.8163Z" fill="white"/>
<path d="M51.4033 38.7869H39.2131C38.9574 38.7869 38.7869 38.9574 38.7869 39.2131V51.4033C38.7869 51.659 38.9574 51.8295 39.2131 51.8295H51.4033C51.659 51.8295 51.8295 51.659 51.8295 51.4033V39.2131C51.7442 39.0426 51.5737 38.7869 51.4033 38.7869ZM42.0262 48.5049V42.1115H48.4197V48.5049H42.0262Z" fill="white"/>
<path d="M46.3738 43.8163H44.2426C43.9869 43.8163 43.8164 43.9868 43.8164 44.2425V46.3737C43.8164 46.6294 43.9869 46.7999 44.2426 46.7999H46.3738C46.6295 46.7999 46.8 46.6294 46.8 46.3737V44.2425C46.7148 43.9868 46.5443 43.8163 46.3738 43.8163Z" fill="white"/>
<path d="M16.7934 32.9902H0.255737V35.3771H16.7934V32.9902Z" fill="white"/>
<path d="M28.9836 51.915H25.659V35.3773H23.1869V51.915H19.777V35.3773H16.7082V51.915H35.4623H32.1377V35.3773H28.9836V51.915Z" fill="white"/>
<path d="M32.0524 31.9672H28.9836V33.0754H32.0524V31.9672Z" fill="white"/>
<path d="M25.659 31.9672H23.1869V33.0754H25.659V31.9672Z" fill="white"/>
<path d="M52 30.3476H32.1377V31.882H52V30.3476Z" fill="white"/>
<path d="M24.0394 3.15424H19.7771V6.64932H24.0394V3.15424Z" fill="white"/>
<path d="M23.1869 30.3476H19.7771V31.882H23.1869V30.3476Z" fill="white"/>
<path d="M24.0393 45.8624H18.9246V49.5279H24.0393V45.8624Z" fill="white"/>
<path d="M2.38688 30.3476H0.255737V31.882H2.38688V30.3476Z" fill="white"/>
<path d="M16.7935 30.3476H5.79675V31.882H16.7935V30.3476Z" fill="white"/>
<path d="M29.0688 30.3476H25.659V31.882H29.0688V30.3476Z" fill="white"/>
<path d="M29.9213 38.6163H24.8065V40.1508H29.9213V38.6163Z" fill="white"/>
<path d="M29.9213 46.8H24.8065V47.3968H29.9213V46.8Z" fill="white"/>
<path d="M29.9213 44.0723H24.8065V44.669H29.9213V44.0723Z" fill="white"/>
<path d="M29.9213 41.3442H24.8065V41.941H29.9213V41.3442Z" fill="white"/>
<path d="M29.0688 32.9902H25.659V35.3771H29.0688V32.9902Z" fill="white"/>
<path d="M21.9082 32.9902H18.4984V35.3771H21.9082V32.9902Z" fill="white"/>
<path d="M36.2295 32.9902H35.2066V35.3771H36.2295V32.9902Z" fill="white"/>
<path d="M34.1836 32.9902H33.1606V35.3771H34.1836V32.9902Z" fill="white"/>
<path d="M52 32.9902H39.6394V35.3771H52V32.9902Z" fill="white"/>
<path d="M14.3213 16.4526H0.255737V17.3903H14.3213V16.4526Z" fill="white"/>
<path d="M52 16.4526H39.6394V17.3903H52V16.4526Z" fill="white"/>
<path d="M38.7869 16.4526H37.6787V17.3903H38.7869V16.4526Z" fill="white"/>
<path d="M36.741 16.4526H35.6328V17.3903H36.741V16.4526Z" fill="white"/>
<path d="M34.6951 16.4526H33.5869V17.3903H34.6951V16.4526Z" fill="white"/>
<path d="M29.0688 18.7542H25.659V22.2493H29.0688V18.7542Z" fill="white"/>
<path d="M29.9213 11.6788H25.659V15.1739H29.9213V11.6788Z" fill="white"/>
<path d="M10.9115 18.7542H9.80328V22.2493H10.9115V18.7542Z" fill="white"/>
<path d="M8.69508 18.7542H7.58688V22.2493H8.69508V18.7542Z" fill="white"/>
<path d="M6.47871 18.7542H5.37051V22.2493H6.47871V18.7542Z" fill="white"/>
<path d="M52 18.7542H41.3443V22.2493H52V18.7542Z" fill="white"/>
<path d="M4.17705 18.7542H0.255737V22.2493H4.17705V18.7542Z" fill="white"/>
<path d="M16.7934 18.7542H14.4066V22.2493H16.7934V18.7542Z" fill="white"/>
<path d="M36.1443 18.7542H32.1377V22.2493H36.1443V18.7542Z" fill="white"/>
<path d="M40.2361 18.7542H38.4459V22.2493H40.2361V18.7542Z" fill="white"/>
<path d="M19.777 6.81964H16.7082V18.7541H19.777V6.81964Z" fill="white"/>
<path d="M19.777 0.0854492H16.7082V3.06906H19.777V0.0854492Z" fill="white"/>
<path d="M25.659 0.0854492H23.1869V11.4232H25.659V0.0854492Z" fill="white"/>
<path d="M25.659 15.8559H23.1869V18.7543H25.659V15.8559Z" fill="white"/>
<path d="M32.0524 0.0854492H28.9836V2.64283H32.0524V0.0854492Z" fill="white"/>
<path d="M32.0524 5.79675H28.9836V18.8394H32.0524V5.79675Z" fill="white"/>
<path d="M35.2065 5.79675H33.7574V13.8099H35.2065V5.79675Z" fill="white"/>
<path d="M35.2065 0.511536H33.7574V4.26236H35.2065V0.511536Z" fill="white"/>
<path d="M51.4885 26.5115H0.681977C0.426239 26.5115 0.170502 26.2557 0.170502 26C0.170502 25.7443 0.426239 25.4885 0.681977 25.4885H51.4885C51.7443 25.4885 52 25.7443 52 26C52 26.2557 51.7443 26.5115 51.4885 26.5115Z" fill="#E05407"/>
<path d="M51.4885 25.4885H0.681967C0.511475 25.4885 0.340983 25.5738 0.255737 25.7443C0.340983 25.9148 0.511475 26 0.681967 26H51.4885C51.659 26 51.8295 25.9148 51.9148 25.7443C51.9148 25.659 51.7443 25.4885 51.4885 25.4885Z" fill="#FF7631"/>
<path d="M35.2066 43.7312H33.7574V51.7443H35.2066V43.7312Z" fill="white"/>
<path d="M35.2065 38.5312H33.7574V42.2821H35.2065V38.5312Z" fill="white"/>
</g>
<defs>
<clipPath id="clip0_1_81">
<rect width="52" height="52" fill="white"/>
</clipPath>
</defs>
</svg>
