<svg width="19" height="19" viewBox="0 0 19 19" fill="none" xmlns="http://www.w3.org/2000/svg">
<g clip-path="url(#clip0_1_2376)">
<path d="M12.0174 2.05919C9.27191 -0.686346 4.80455 -0.686282 2.05908 2.05919C-0.686389 4.80459 -0.686389 9.27189 2.05901 12.0174C4.80467 14.7631 9.27198 14.763 12.0174 12.0174C14.7628 9.27189 14.7628 4.80459 12.0174 2.05919ZM7.03829 13.1732C5.46654 13.1732 3.89472 12.575 2.69817 11.3783C0.305001 8.98517 0.305001 5.09125 2.69817 2.69808C5.09121 0.305044 8.98506 0.304917 11.3784 2.69808C13.7715 5.09125 13.7715 8.98517 11.3784 11.3783C10.1817 12.5749 8.60998 13.1732 7.03829 13.1732Z" fill="url(#paint0_linear_1_2376)"/>
<path d="M18.8626 16.8017L13.5761 11.5151C13.5735 11.5125 13.5705 11.5105 13.5679 11.508C13.2963 11.9043 12.9852 12.2814 12.6335 12.6332C12.2817 12.985 11.9045 13.2962 11.5082 13.5677C11.5107 13.5704 11.5127 13.5734 11.5153 13.5759L16.8019 18.8625C16.8899 18.9505 17.0092 18.9999 17.1336 18.9999C17.258 18.9999 17.3773 18.9505 17.4653 18.8625L18.8626 17.4652C19.0458 17.2819 19.0458 16.9849 18.8626 16.8017Z" fill="url(#paint1_linear_1_2376)"/>
<path d="M8.99896 8.71705L8.62587 8.60254L7.25224 9.34962C7.11879 9.42223 6.95771 9.42223 6.82439 9.34962L5.45063 8.60254L5.07754 8.71705C4.62365 8.87046 4.31914 9.29466 4.31914 9.77408V11.5717C5.11618 12.0514 6.04955 12.3277 7.04759 12.3277C8.03796 12.3277 8.96441 12.0553 9.75736 11.5823V9.77401C9.75736 9.29466 9.45285 8.87046 8.99896 8.71705Z" fill="url(#paint2_linear_1_2376)"/>
<path d="M7.03831 3.99896C6.41215 3.99896 5.90266 4.50844 5.90266 5.13461C5.90266 5.76078 6.41215 6.27026 7.03831 6.27026C7.66448 6.27026 8.17396 5.76078 8.17396 5.13461C8.17396 4.50844 7.66448 3.99896 7.03831 3.99896Z" fill="url(#paint3_linear_1_2376)"/>
<path d="M7.04759 1.72955C4.12095 1.72955 1.74851 4.10206 1.74851 7.02864C1.74851 8.55305 2.3931 9.9261 3.42352 10.8929V9.7741C3.42352 8.90695 3.97631 8.14004 4.79894 7.86585C4.80239 7.8647 4.80572 7.86361 4.80918 7.86252L5.36785 7.69108C5.483 7.65583 5.6075 7.6683 5.71311 7.72581L7.03825 8.44647L8.36326 7.72581C8.46907 7.6683 8.59357 7.65583 8.70859 7.69108L9.26727 7.86252C9.27072 7.86361 9.27405 7.8647 9.2775 7.86585C10.1001 8.14004 10.6529 8.90695 10.6529 9.7741V10.9107C11.6943 9.94306 12.3466 8.56239 12.3466 7.0287C12.3467 4.10206 9.97423 1.72955 7.04759 1.72955ZM7.03832 7.16586C5.91828 7.16586 5.00704 6.25462 5.00704 5.13458C5.00704 4.01454 5.91828 3.10331 7.03832 3.10331C8.15836 3.10331 9.06959 4.01454 9.06959 5.13458C9.06959 6.25462 8.15829 7.16586 7.03832 7.16586Z" fill="url(#paint4_linear_1_2376)"/>
</g>
<defs>
<linearGradient id="paint0_linear_1_2376" x1="-1.85218" y1="-2.95878e-05" x2="18.1514" y2="15.5581" gradientUnits="userSpaceOnUse">
<stop stop-color="#0B8AFF"/>
<stop offset="0.696118" stop-color="#003E77"/>
</linearGradient>
<linearGradient id="paint1_linear_1_2376" x1="10.5224" y1="11.5079" x2="21.1688" y2="19.7883" gradientUnits="userSpaceOnUse">
<stop stop-color="#0B8AFF"/>
<stop offset="0.696118" stop-color="#003E77"/>
</linearGradient>
<linearGradient id="paint2_linear_1_2376" x1="3.60359" y1="8.60252" x2="9.02156" y2="14.7543" gradientUnits="userSpaceOnUse">
<stop stop-color="#0B8AFF"/>
<stop offset="0.696118" stop-color="#003E77"/>
</linearGradient>
<linearGradient id="paint3_linear_1_2376" x1="5.60381" y1="3.99895" x2="8.83147" y2="6.50932" gradientUnits="userSpaceOnUse">
<stop stop-color="#0B8AFF"/>
<stop offset="0.696118" stop-color="#003E77"/>
</linearGradient>
<linearGradient id="paint4_linear_1_2376" x1="0.354044" y1="1.72949" x2="13.7374" y2="13.7451" gradientUnits="userSpaceOnUse">
<stop stop-color="#0B8AFF"/>
<stop offset="0.696118" stop-color="#003E77"/>
</linearGradient>
<clipPath id="clip0_1_2376">
<rect width="19" height="19" fill="white"/>
</clipPath>
</defs>
</svg>
