<svg width="20" height="20" viewBox="0 0 20 20" fill="none" xmlns="http://www.w3.org/2000/svg">
<path d="M12.4844 15.7377C12.7519 15.82 13.0261 15.8826 13.3044 15.9239C12.8959 17.0632 11.815 17.8865 10.5381 17.8865H2.95075C1.32356 17.8865 3.05176e-05 16.5627 3.05176e-05 14.9359V5.66243C3.05176e-05 4.03524 1.32356 2.71171 2.95075 2.71171H5.2218C5.42839 1.28624 6.64727 0.182556 8.12953 0.182556H12.2234C13.8502 0.182556 15.174 1.50608 15.174 3.13328V5.14325C14.8974 5.08646 14.6157 5.05022 14.331 5.03792V3.13328C14.331 1.97159 13.3859 1.0257 12.2234 1.0257H8.12953C7.11197 1.0257 6.26031 1.75067 6.06481 2.71184H10.5389C11.9623 2.71184 13.1528 3.72535 13.4286 5.06726C13.1504 5.10106 12.8762 5.16204 12.6029 5.23856C12.407 4.27901 11.5558 3.55485 10.5398 3.55485H2.95238C1.79069 3.55485 0.844794 4.50088 0.844794 5.66257V14.936C0.844794 16.0969 1.79083 17.0438 2.95238 17.0438H10.5398C11.4158 17.0427 12.1683 16.5017 12.4844 15.7377ZM16.6371 14.9162C14.2043 16.3207 11.0832 15.4842 9.67912 13.0522C8.27447 10.6211 9.11139 7.49961 11.5425 6.09577C13.9745 4.69206 17.0964 5.52723 18.501 7.95971C19.9055 10.3912 19.0674 13.5117 16.6371 14.9162ZM16.2156 14.1867C18.2451 13.016 18.9415 10.4111 17.7699 8.38128C16.5992 6.35104 13.9943 5.65283 11.9642 6.8248C9.93439 7.99676 9.2374 10.6004 10.409 12.6305C11.5805 14.6606 14.1852 15.3583 16.2156 14.1867ZM17.9165 14.6033L15.7248 15.868L17.411 18.7874L19.6027 17.5227L17.9165 14.6033ZM19.8298 17.9195L17.6389 19.1841C17.988 19.7899 18.762 19.9976 19.3662 19.6469C19.9714 19.2978 20.1805 18.5247 19.8298 17.9195ZM8.13953 5.766H2.52837V6.39836H8.1394V5.766H8.13953ZM6.849 8.57692H2.52837V9.20914H6.849V8.57692ZM2.52837 12.0191H6.849V11.3868H2.52837V12.0191ZM2.52837 14.8288H8.1394V14.1966H2.52837V14.8288ZM13.2681 11.3827L11.9591 9.93236L11.3334 10.4985L13.185 12.5467L16.8024 9.53391L16.2624 8.88641L13.2681 11.3827Z" fill="url(#paint0_linear_1_2413)"/>
<defs>
<linearGradient id="paint0_linear_1_2413" x1="2.77778" y1="0.555548" x2="21.1111" y2="20.5555" gradientUnits="userSpaceOnUse">
<stop offset="0.191613" stop-color="#3684FA"/>
<stop offset="0.759283" stop-color="#001D49"/>
</linearGradient>
</defs>
</svg>
