<svg width="50" height="50" viewBox="0 0 50 50" fill="none" xmlns="http://www.w3.org/2000/svg">
<g clip-path="url(#clip0_1_926)">
<path d="M19.7917 31.25H7.29173C6.71673 31.25 6.25006 30.7834 6.25006 30.2084C6.25006 29.6334 6.71673 29.1667 7.29173 29.1667H19.7917C20.3667 29.1667 20.8334 29.6334 20.8334 30.2084C20.8334 30.7834 20.3667 31.25 19.7917 31.25Z" fill="white"/>
<path d="M17.7084 37.5H7.29173C6.71673 37.5 6.25006 37.0334 6.25006 36.4584C6.25006 35.8834 6.71673 35.4167 7.29173 35.4167H17.7084C18.2834 35.4167 18.7501 35.8834 18.7501 36.4584C18.7501 37.0334 18.2834 37.5 17.7084 37.5Z" fill="white"/>
<path d="M17.7083 14.5832C15.4104 14.5832 13.5416 12.7145 13.5416 10.4166C13.5416 8.11864 15.4104 6.24989 17.7083 6.24989C20.0062 6.24989 21.8749 8.11864 21.8749 10.4166C21.8749 12.7145 20.0062 14.5832 17.7083 14.5832ZM17.7083 8.33322C16.5604 8.33322 15.6249 9.26864 15.6249 10.4166C15.6249 11.5645 16.5604 12.4999 17.7083 12.4999C18.8562 12.4999 19.7916 11.5645 19.7916 10.4166C19.7916 9.26864 18.8562 8.33322 17.7083 8.33322Z" fill="white"/>
<path d="M25.0001 24.9999C24.4251 24.9999 23.9584 24.5333 23.9584 23.9583V21.8749C23.9584 20.152 22.5563 18.7499 20.8334 18.7499H14.5834C12.8605 18.7499 11.4584 20.152 11.4584 21.8749V23.9583C11.4584 24.5333 10.9917 24.9999 10.4167 24.9999C9.84173 24.9999 9.37506 24.5333 9.37506 23.9583V21.8749C9.37506 19.0041 11.7126 16.6666 14.5834 16.6666H20.8334C23.7042 16.6666 26.0417 19.0041 26.0417 21.8749V23.9583C26.0417 24.5333 25.5751 24.9999 25.0001 24.9999Z" fill="white"/>
<path d="M19.7917 43.75H5.20833C2.3375 43.75 0 41.4125 0 38.5417V5.20833C0 2.3375 2.3375 0 5.20833 0H30.2083C33.0792 0 35.4167 2.3375 35.4167 5.20833V17.8333C35.4167 18.4083 34.95 18.875 34.375 18.875C33.8 18.875 33.3333 18.4083 33.3333 17.8333V5.20833C33.3333 3.48542 31.9313 2.08333 30.2083 2.08333H5.20833C3.48542 2.08333 2.08333 3.48542 2.08333 5.20833V38.5417C2.08333 40.2646 3.48542 41.6667 5.20833 41.6667H19.7917C20.3667 41.6667 20.8333 42.1333 20.8333 42.7083C20.8333 43.2833 20.3667 43.75 19.7917 43.75Z" fill="white"/>
<path d="M36.4583 50C28.9916 50 22.9166 43.925 22.9166 36.4584C22.9166 28.9917 28.9916 22.9167 36.4583 22.9167C43.9249 22.9167 49.9999 28.9917 49.9999 36.4584C49.9999 43.925 43.9249 50 36.4583 50ZM36.4583 25C30.1395 25 24.9999 30.1396 24.9999 36.4584C24.9999 42.7771 30.1395 47.9167 36.4583 47.9167C42.777 47.9167 47.9166 42.7771 47.9166 36.4584C47.9166 30.1396 42.777 25 36.4583 25Z" fill="white"/>
<path d="M34.3753 41.6666C34.1003 41.6666 33.8336 41.5562 33.6378 41.3624L29.4711 37.1958C29.0649 36.7895 29.0649 36.1291 29.4711 35.7228C29.8774 35.3166 30.5378 35.3166 30.944 35.7228L34.3232 39.102L40.8815 31.6062C41.2607 31.1708 41.919 31.127 42.3524 31.5083C42.7857 31.8874 42.8294 32.5458 42.4503 32.9791L35.1586 41.3124C34.969 41.5291 34.6961 41.6583 34.4086 41.6666C34.3982 41.6666 34.3857 41.6666 34.3753 41.6666Z" fill="white"/>
</g>
<defs>
<clipPath id="clip0_1_926">
<rect width="50" height="50" fill="white"/>
</clipPath>
</defs>
</svg>
