<svg width="44" height="32" viewBox="0 0 44 32" fill="none" xmlns="http://www.w3.org/2000/svg">
<path d="M39.9489 0.900757H4.05119C1.81748 0.900757 3.05176e-05 2.71821 3.05176e-05 4.95192V27.048C3.05176e-05 29.2817 1.81748 31.0991 4.05119 31.0991H39.9489C42.1826 31.0991 44 29.2817 44 27.048V4.95192C44 2.71804 42.1826 0.900757 39.9489 0.900757ZM41.4681 27.048C41.4681 27.8855 40.7866 28.5672 39.9489 28.5672H4.05119C3.21345 28.5672 2.53201 27.8855 2.53201 27.048V4.95192C2.53201 4.11434 3.21345 3.43273 4.05119 3.43273H39.9489C40.7866 3.43273 41.4681 4.11434 41.4681 4.95192V27.048Z" fill="white"/>
<path d="M36.4672 8.12878H24.8315C24.2721 8.12878 23.8187 8.58235 23.8187 9.14157C23.8187 9.7008 24.2721 10.1544 24.8315 10.1544H36.4672C37.0266 10.1544 37.48 9.7008 37.48 9.14157C37.48 8.58235 37.0266 8.12878 36.4672 8.12878Z" fill="white"/>
<path d="M36.4672 21.8453H24.8315C24.2721 21.8453 23.8187 22.2987 23.8187 22.8581C23.8187 23.4174 24.2721 23.8709 24.8315 23.8709H36.4672C37.0266 23.8709 37.48 23.4174 37.48 22.8581C37.48 22.2987 37.0266 21.8453 36.4672 21.8453Z" fill="white"/>
<path d="M36.4672 13.9875H29.4253C28.8661 13.9875 28.4125 14.4411 28.4125 15.0003C28.4125 15.5596 28.8661 16.0131 29.4253 16.0131H36.4672C37.0266 16.0131 37.48 15.5596 37.48 15.0003C37.48 14.4411 37.0266 13.9875 36.4672 13.9875Z" fill="white"/>
<path d="M36.4672 17.9163H29.4253C28.8661 17.9163 28.4125 18.3698 28.4125 18.9291C28.4125 19.4884 28.8661 19.9418 29.4253 19.9418H36.4672C37.0266 19.9418 37.48 19.4884 37.48 18.9291C37.48 18.3698 37.0266 17.9163 36.4672 17.9163Z" fill="white"/>
<path d="M14.3754 16.4732C17.2456 16.4732 19.5808 14.1372 19.5808 11.2659C19.5808 8.39447 17.2456 6.05847 14.3754 6.05847C11.5043 6.05847 9.16846 8.39447 9.16846 11.2659C9.16846 14.1372 11.5043 16.4732 14.3754 16.4732ZM14.3754 8.59062C15.8495 8.59062 17.0488 9.79077 17.0488 11.2661C17.0488 12.7412 15.8497 13.9414 14.3754 13.9414C12.9004 13.9414 11.7004 12.7412 11.7004 11.2661C11.7004 9.79077 12.9004 8.59062 14.3754 8.59062Z" fill="white"/>
<path d="M16.3899 17.4089H12.3924C9.59167 17.4089 7.31323 19.6872 7.31323 22.4877V24.6755C7.31323 25.3747 7.87989 25.9415 8.57922 25.9415C9.27855 25.9415 9.84521 25.3747 9.84521 24.6755V22.4877C9.84521 21.0835 10.988 19.9409 12.3924 19.9409H16.3899C17.7943 19.9409 18.937 21.0833 18.937 22.4877V24.6755C18.937 25.3747 19.5037 25.9415 20.203 25.9415C20.9023 25.9415 21.469 25.3747 21.469 24.6755V22.4877C21.469 19.6872 19.1904 17.4089 16.3899 17.4089Z" fill="white"/>
</svg>
