<svg width="44" height="44" viewBox="0 0 44 44" fill="none" xmlns="http://www.w3.org/2000/svg">
<g clip-path="url(#clip0_1_2153)">
<path d="M39.9489 6.90076H4.05119C1.81748 6.90076 3.05176e-05 8.71821 3.05176e-05 10.9519V33.048C3.05176e-05 35.2817 1.81748 37.0991 4.05119 37.0991H39.9489C42.1826 37.0991 44 35.2817 44 33.048V10.9519C44 8.71804 42.1826 6.90076 39.9489 6.90076ZM41.4681 33.048C41.4681 33.8855 40.7866 34.5672 39.9489 34.5672H4.05119C3.21345 34.5672 2.53201 33.8855 2.53201 33.048V10.9519C2.53201 10.1143 3.21345 9.43273 4.05119 9.43273H39.9489C40.7866 9.43273 41.4681 10.1143 41.4681 10.9519V33.048Z" fill="white"/>
<path d="M36.4672 14.1288H24.8315C24.2721 14.1288 23.8187 14.5823 23.8187 15.1416C23.8187 15.7008 24.2721 16.1544 24.8315 16.1544H36.4672C37.0266 16.1544 37.48 15.7008 37.48 15.1416C37.48 14.5823 37.0266 14.1288 36.4672 14.1288Z" fill="white"/>
<path d="M36.4672 27.8453H24.8315C24.2721 27.8453 23.8187 28.2987 23.8187 28.8581C23.8187 29.4174 24.2721 29.8709 24.8315 29.8709H36.4672C37.0266 29.8709 37.48 29.4174 37.48 28.8581C37.48 28.2987 37.0266 27.8453 36.4672 27.8453Z" fill="white"/>
<path d="M36.4672 19.9875H29.4253C28.8661 19.9875 28.4125 20.4411 28.4125 21.0003C28.4125 21.5596 28.8661 22.0131 29.4253 22.0131H36.4672C37.0266 22.0131 37.48 21.5596 37.48 21.0003C37.48 20.4411 37.0266 19.9875 36.4672 19.9875Z" fill="white"/>
<path d="M36.4672 23.9163H29.4253C28.8661 23.9163 28.4125 24.3698 28.4125 24.9291C28.4125 25.4884 28.8661 25.9418 29.4253 25.9418H36.4672C37.0266 25.9418 37.48 25.4884 37.48 24.9291C37.48 24.3698 37.0266 23.9163 36.4672 23.9163Z" fill="white"/>
<path d="M14.3754 22.4732C17.2456 22.4732 19.5808 20.1372 19.5808 17.2659C19.5808 14.3945 17.2456 12.0585 14.3754 12.0585C11.5043 12.0585 9.16846 14.3945 9.16846 17.2659C9.16846 20.1372 11.5043 22.4732 14.3754 22.4732ZM14.3754 14.5906C15.8495 14.5906 17.0488 15.7908 17.0488 17.2661C17.0488 18.7412 15.8497 19.9414 14.3754 19.9414C12.9004 19.9414 11.7004 18.7412 11.7004 17.2661C11.7004 15.7908 12.9004 14.5906 14.3754 14.5906Z" fill="white"/>
<path d="M16.3899 23.4089H12.3924C9.59167 23.4089 7.31323 25.6872 7.31323 28.4877V30.6755C7.31323 31.3747 7.87989 31.9415 8.57922 31.9415C9.27855 31.9415 9.84521 31.3747 9.84521 30.6755V28.4877C9.84521 27.0835 10.988 25.9409 12.3924 25.9409H16.3899C17.7943 25.9409 18.937 27.0833 18.937 28.4877V30.6755C18.937 31.3747 19.5037 31.9415 20.203 31.9415C20.9023 31.9415 21.469 31.3747 21.469 30.6755V28.4877C21.469 25.6872 19.1904 23.4089 16.3899 23.4089Z" fill="white"/>
</g>
<defs>
<clipPath id="clip0_1_2153">
<rect width="44" height="44" fill="white"/>
</clipPath>
</defs>
</svg>
