<svg width="42" height="42" viewBox="0 0 42 42" fill="none" xmlns="http://www.w3.org/2000/svg">
<path d="M33.6 6.3H31.5V2.1C31.5 1.43637 31.1864 0.811289 30.6537 0.415078C30.2869 0.142078 29.8466 0 29.4 0C29.1977 0 28.9947 0.0293672 28.7966 0.0889219L7.7966 6.38892C6.90828 6.65487 6.30002 7.47247 6.30002 8.4V39.9C6.30002 41.0599 7.2401 42 8.40002 42H33.6C34.7599 42 35.7 41.0599 35.7 39.9V8.4C35.7 7.24008 34.7599 6.3 33.6 6.3ZM29.4 2.1V6.3H15.4L29.4 2.1ZM33.6 39.9H8.40002V8.4H33.6V39.9Z" fill="white"/>
<path d="M21 13.6501C15.2012 13.6501 10.5 18.3513 10.5 24.1501C10.5 29.9489 15.2012 34.6501 21 34.6501C26.7988 34.6501 31.5 29.9489 31.5 24.1501C31.5 18.3513 26.7988 13.6501 21 13.6501ZM21 15.8026C21.4634 16.1673 22.2481 17.6177 22.7157 20.0194C22.1543 19.9823 21.588 19.9501 21 19.9501C20.412 19.9501 19.8457 19.9823 19.2843 20.0194C19.7519 17.6184 20.5366 16.1673 21 15.8026ZM18.2623 16.2471C17.7604 17.3349 17.3572 18.6894 17.1059 20.2567C15.5386 20.508 14.1841 20.9112 13.0963 21.4131C13.9391 18.9911 15.841 17.0892 18.2623 16.2471ZM12.6525 24.1501C13.0172 23.6867 14.4683 22.902 16.8693 22.4344C16.8322 22.9958 16.8 23.5621 16.8 24.1501C16.8 24.7381 16.8322 25.3043 16.8693 25.8658C14.4683 25.3982 13.0172 24.6135 12.6525 24.1501ZM13.097 26.8878C14.1848 27.3897 15.5393 27.7929 17.1066 28.0442C17.3579 29.6115 17.7612 30.966 18.263 32.0538C15.841 31.211 13.9391 29.3091 13.097 26.8878ZM21 32.4976C20.5366 32.1329 19.7519 30.6825 19.2843 28.2808C19.8457 28.3178 20.412 28.3501 21 28.3501C21.588 28.3501 22.1543 28.3178 22.7157 28.2808C22.2481 30.6818 21.4634 32.1329 21 32.4976ZM23.0097 26.1598C22.3797 26.2137 21.7182 26.2501 21 26.2501C20.2818 26.2501 19.6203 26.2137 18.9903 26.1598C18.9364 25.5298 18.9 24.8683 18.9 24.1501C18.9 23.4319 18.9364 22.7704 18.9903 22.1404C19.6203 22.0865 20.2818 22.0501 21 22.0501C21.7182 22.0501 22.3797 22.0865 23.0097 22.1404C23.0636 22.7704 23.1 23.4319 23.1 24.1501C23.1 24.8683 23.0636 25.5298 23.0097 26.1598ZM28.903 21.4124C27.8152 20.9105 26.4607 20.5072 24.8934 20.256C24.6421 18.6887 24.2388 17.3342 23.737 16.2464C26.159 17.0892 28.0609 18.9911 28.903 21.4124ZM23.7377 32.0531C24.2396 30.9652 24.6428 29.6107 24.8941 28.0435C26.4614 27.7922 27.8159 27.3889 28.9037 26.8871C28.0609 29.3091 26.159 31.211 23.7377 32.0531ZM25.1307 25.8658C25.1678 25.3043 25.2 24.7381 25.2 24.1501C25.2 23.5621 25.1678 22.9958 25.1307 22.4344C27.5317 22.902 28.9828 23.6867 29.3475 24.1501C28.9828 24.6135 27.5317 25.3982 25.1307 25.8658Z" fill="white"/>
</svg>
